# xmcd
# 
# Track frame offsets:
#     150
#     14347
#     27938
#     44429
#     61310
#     77581
#     99711
#     118766
#     130541
#     147390
#     162618
#     182363
#     200486
#     214734
# 
# Disc length: 3095
# 
# Revision: 0
# Processed by: cddbd v1.5.2PL0 Copyright (c) Steve Scherf et al.
# Submitted via: fre:ac v1.0.27
# 
DISCID=c20c150e
DTITLE=Various Artist - Iland Style Ukulule
DYEAR=0
DGENRE=
TTITLE0=Brian Tolentino - Puamana
TTITLE1=Brittni Paiva - Kawika
TTITLE2=Benny Chong - E Ku'u Morning Dew
TTITLE3=Imua Garza - Waika
TTITLE4=Grodon Freitas - Hello Waimanalo
TTITLE5=Daniel Baduria - Lullaby for a Rainy Night
TTITLE6=Kalei Gamiao - I'll Remember You
TTITLE7=Corey Fujimoto - Lahaina
TTITLE8=Herb Ohta Jr - White Sandy Beach
TTITLE9=Aaron Crowell - Kaulana Na Pua
TTITLE10=Todd Adamski - About You
TTITLE11=Jan Luna - Moloka'i Slide
TTITLE12=Troy Fernandez - Take Me Home Country Road
TTITLE13=Paka Smith - Kanaka Wai Wai
EXTD=
EXTT0=
EXTT1=
EXTT2=
EXTT3=
EXTT4=
EXTT5=
EXTT6=
EXTT7=
EXTT8=
EXTT9=
EXTT10=
EXTT11=
EXTT12=
EXTT13=
PLAYORDER=
